ply
format ascii 1.0
comment Created by Blender 2.79 (sub 0) - www.blender.org, source file: ''
element vertex 48
property float x
property float y
property float z
property float nx
property float ny
property float nz
property uchar red
property uchar green
property uchar blue
element face 12
property list uchar uint vertex_indices
end_header
-15.000000 -15.000000 -15.000000 -1.000000 -0.000000 0.000000 255 255 255
-15.000000 -15.000000 15.000000 -1.000000 -0.000000 0.000000 255 255 255
-15.000000 15.000000 15.000000 -1.000000 -0.000000 0.000000 255 255 255
-15.000000 15.000000 -15.000000 -1.000000 -0.000000 0.000000 255 255 255
-15.000000 15.000000 -15.000000 0.000000 1.000000 0.000000 255 255 255
-15.000000 15.000000 15.000000 0.000000 1.000000 0.000000 255 255 255
15.000000 15.000000 15.000000 0.000000 1.000000 0.000000 255 255 255
15.000000 15.000000 -15.000000 0.000000 1.000000 0.000000 255 255 255
15.000000 15.000000 -15.000000 1.000000 -0.000000 0.000000 255 255 255
15.000000 15.000000 15.000000 1.000000 -0.000000 0.000000 255 255 255
15.000000 -15.000000 15.000000 1.000000 -0.000000 0.000000 255 255 255
15.000000 -15.000000 -15.000000 1.000000 -0.000000 0.000000 255 255 255
-15.000000 -15.000000 15.000000 -0.000000 -1.000000 0.000000 255 255 255
-15.000000 -15.000000 -15.000000 -0.000000 -1.000000 0.000000 255 255 255
15.000000 -15.000000 -15.000000 -0.000000 -1.000000 0.000000 255 255 255
15.000000 -15.000000 15.000000 -0.000000 -1.000000 0.000000 255 255 255
15.000000 -15.000000 -15.000000 0.000000 -0.000000 -1.000000 255 255 255
-15.000000 -15.000000 -15.000000 0.000000 -0.000000 -1.000000 255 255 255
-15.000000 15.000000 -15.000000 0.000000 -0.000000 -1.000000 255 255 255
15.000000 15.000000 -15.000000 0.000000 -0.000000 -1.000000 255 255 255
15.000000 15.000000 15.000000 0.000000 -0.000000 1.000000 255 255 255
-15.000000 15.000000 15.000000 0.000000 -0.000000 1.000000 255 255 255
-15.000000 -15.000000 15.000000 0.000000 -0.000000 1.000000 255 255 255
15.000000 -15.000000 15.000000 0.000000 -0.000000 1.000000 255 255 255
-15.000000 -15.000000 14.999996 -1.000000 -0.000000 0.000000 0 0 255
-15.000000 -15.000000 105.000000 -1.000000 -0.000000 0.000000 0 0 255
-15.000000 15.000000 105.000000 -1.000000 -0.000000 0.000000 0 0 255
-15.000000 15.000000 14.999996 -1.000000 -0.000000 0.000000 0 0 255
-15.000000 15.000000 14.999996 0.000000 1.000000 0.000000 0 0 255
-15.000000 15.000000 105.000000 0.000000 1.000000 0.000000 0 0 255
15.000000 15.000000 105.000000 0.000000 1.000000 0.000000 0 0 255
15.000000 15.000000 14.999996 0.000000 1.000000 0.000000 0 0 255
15.000000 15.000000 14.999996 1.000000 -0.000000 0.000000 0 0 255
15.000000 15.000000 105.000000 1.000000 -0.000000 0.000000 0 0 255
15.000000 -15.000000 105.000000 1.000000 -0.000000 0.000000 0 0 255
15.000000 -15.000000 14.999996 1.000000 -0.000000 0.000000 0 0 255
15.000000 -15.000000 14.999996 0.000000 -1.000000 0.000000 0 0 255
15.000000 -15.000000 105.000000 0.000000 -1.000000 0.000000 0 0 255
-15.000000 -15.000000 105.000000 0.000000 -1.000000 0.000000 0 0 255
-15.000000 -15.000000 14.999996 0.000000 -1.000000 0.000000 0 0 255
-15.000000 15.000000 14.999996 0.000000 0.000000 -1.000000 0 0 255
15.000000 15.000000 14.999996 0.000000 0.000000 -1.000000 0 0 255
15.000000 -15.000000 14.999996 0.000000 0.000000 -1.000000 0 0 255
-15.000000 -15.000000 14.999996 0.000000 0.000000 -1.000000 0 0 255
15.000000 15.000000 105.000000 0.000000 -0.000000 1.000000 0 0 255
-15.000000 15.000000 105.000000 0.000000 -0.000000 1.000000 0 0 255
-15.000000 -15.000000 105.000000 0.000000 -0.000000 1.000000 0 0 255
15.000000 -15.000000 105.000000 0.000000 -0.000000 1.000000 0 0 255
4 0 1 2 3
4 4 5 6 7
4 8 9 10 11
4 12 13 14 15
4 16 17 18 19
4 20 21 22 23
4 24 25 26 27
4 28 29 30 31
4 32 33 34 35
4 36 37 38 39
4 40 41 42 43
4 44 45 46 47
