####
#
# OBJ File Generated by Meshlab
#
####
# Object 3axis.obj
#
# Vertices: 96
# Faces: 48
#
####
mtllib ./3axis.mtl

vn -2.000000 0.000000 0.000000
v -15.000000 -15.000000 -15.000000 1.000000 1.000000 1.000000
vn -1.000000 0.000000 0.000000
v -15.000000 -15.000000 15.000000 1.000000 1.000000 1.000000
vn -2.000000 0.000000 0.000000
v -15.000000 15.000000 15.000000 1.000000 1.000000 1.000000
vn -1.000000 0.000000 0.000000
v -15.000000 15.000000 -15.000000 1.000000 1.000000 1.000000
vn 0.000000 2.000000 0.000000
v -15.000000 15.000000 -15.000000 1.000000 1.000000 1.000000
vn 0.000000 1.000000 0.000000
v -15.000000 15.000000 15.000000 1.000000 1.000000 1.000000
vn 0.000000 2.000000 0.000000
v 15.000000 15.000000 15.000000 1.000000 1.000000 1.000000
vn 0.000000 1.000000 0.000000
v 15.000000 15.000000 -15.000000 1.000000 1.000000 1.000000
vn 2.000000 0.000000 0.000000
v 15.000000 15.000000 -15.000000 1.000000 1.000000 1.000000
vn 1.000000 0.000000 0.000000
v 15.000000 15.000000 15.000000 1.000000 1.000000 1.000000
vn 2.000000 0.000000 0.000000
v 15.000000 -15.000000 15.000000 1.000000 1.000000 1.000000
vn 1.000000 0.000000 0.000000
v 15.000000 -15.000000 -15.000000 1.000000 1.000000 1.000000
vn 0.000000 -2.000000 0.000000
v -15.000000 -15.000000 15.000000 1.000000 1.000000 1.000000
vn 0.000000 -1.000000 0.000000
v -15.000000 -15.000000 -15.000000 1.000000 1.000000 1.000000
vn 0.000000 -2.000000 0.000000
v 15.000000 -15.000000 -15.000000 1.000000 1.000000 1.000000
vn 0.000000 -1.000000 0.000000
v 15.000000 -15.000000 15.000000 1.000000 1.000000 1.000000
vn 0.000000 0.000000 -2.000000
v 15.000000 -15.000000 -15.000000 1.000000 1.000000 1.000000
vn 0.000000 0.000000 -1.000000
v -15.000000 -15.000000 -15.000000 1.000000 1.000000 1.000000
vn 0.000000 0.000000 -2.000000
v -15.000000 15.000000 -15.000000 1.000000 1.000000 1.000000
vn 0.000000 0.000000 -1.000000
v 15.000000 15.000000 -15.000000 1.000000 1.000000 1.000000
vn 0.000000 0.000000 2.000000
v 15.000000 15.000000 15.000000 1.000000 1.000000 1.000000
vn 0.000000 0.000000 1.000000
v -15.000000 15.000000 15.000000 1.000000 1.000000 1.000000
vn 0.000000 0.000000 2.000000
v -15.000000 -15.000000 15.000000 1.000000 1.000000 1.000000
vn 0.000000 0.000000 1.000000
v 15.000000 -15.000000 15.000000 1.000000 1.000000 1.000000
vn -2.000000 0.000000 0.000000
v 15.000000 -15.000000 -15.000000 1.000000 0.000000 0.000000
vn -1.000000 0.000000 0.000000
v 15.000000 -15.000000 15.000000 1.000000 0.000000 0.000000
vn -2.000000 0.000000 0.000000
v 15.000000 15.000000 15.000000 1.000000 0.000000 0.000000
vn -1.000000 0.000000 0.000000
v 15.000000 15.000000 -15.000000 1.000000 0.000000 0.000000
vn 0.000000 2.000000 0.000000
v 15.000000 15.000000 -15.000000 1.000000 0.000000 0.000000
vn 0.000000 1.000000 0.000000
v 15.000000 15.000000 15.000000 1.000000 0.000000 0.000000
vn 0.000000 2.000000 0.000000
v 105.000000 15.000000 15.000000 1.000000 0.000000 0.000000
vn 0.000000 1.000000 0.000000
v 105.000000 15.000000 -15.000000 1.000000 0.000000 0.000000
vn 2.000000 0.000000 0.000000
v 105.000000 15.000000 -15.000000 1.000000 0.000000 0.000000
vn 1.000000 0.000000 0.000000
v 105.000000 15.000000 15.000000 1.000000 0.000000 0.000000
vn 2.000000 0.000000 0.000000
v 105.000000 -15.000000 15.000000 1.000000 0.000000 0.000000
vn 1.000000 0.000000 0.000000
v 105.000000 -15.000000 -15.000000 1.000000 0.000000 0.000000
vn 0.000000 -2.000000 0.000000
v 105.000000 -15.000000 -15.000000 1.000000 0.000000 0.000000
vn 0.000000 -1.000000 0.000000
v 105.000000 -15.000000 15.000000 1.000000 0.000000 0.000000
vn 0.000000 -2.000000 0.000000
v 15.000000 -15.000000 15.000000 1.000000 0.000000 0.000000
vn 0.000000 -1.000000 0.000000
v 15.000000 -15.000000 -15.000000 1.000000 0.000000 0.000000
vn 0.000000 0.000000 -2.000000
v 15.000000 15.000000 -15.000000 1.000000 0.000000 0.000000
vn 0.000000 0.000000 -1.000000
v 105.000000 15.000000 -15.000000 1.000000 0.000000 0.000000
vn 0.000000 0.000000 -2.000000
v 105.000000 -15.000000 -15.000000 1.000000 0.000000 0.000000
vn 0.000000 0.000000 -1.000000
v 15.000000 -15.000000 -15.000000 1.000000 0.000000 0.000000
vn 0.000000 0.000000 2.000000
v 105.000000 15.000000 15.000000 1.000000 0.000000 0.000000
vn 0.000000 0.000000 1.000000
v 15.000000 15.000000 15.000000 1.000000 0.000000 0.000000
vn 0.000000 0.000000 2.000000
v 15.000000 -15.000000 15.000000 1.000000 0.000000 0.000000
vn 0.000000 0.000000 1.000000
v 105.000000 -15.000000 15.000000 1.000000 0.000000 0.000000
vn -2.000000 0.000000 0.000000
v -15.000000 15.000000 -15.000000 0.000000 1.000000 0.000000
vn -1.000000 0.000000 0.000000
v -15.000000 15.000000 15.000000 0.000000 1.000000 0.000000
vn -2.000000 0.000000 0.000000
v -15.000000 105.000000 15.000000 0.000000 1.000000 0.000000
vn -1.000000 0.000000 0.000000
v -15.000000 105.000000 -15.000000 0.000000 1.000000 0.000000
vn 0.000000 2.000000 0.000000
v -15.000000 105.000000 -15.000000 0.000000 1.000000 0.000000
vn 0.000000 1.000000 0.000000
v -15.000000 105.000000 15.000000 0.000000 1.000000 0.000000
vn 0.000000 2.000000 0.000000
v 15.000000 105.000000 15.000000 0.000000 1.000000 0.000000
vn 0.000000 1.000000 0.000000
v 15.000000 105.000000 -15.000000 0.000000 1.000000 0.000000
vn 2.000000 0.000000 0.000000
v 15.000000 105.000000 -15.000000 0.000000 1.000000 0.000000
vn 1.000000 0.000000 0.000000
v 15.000000 105.000000 15.000000 0.000000 1.000000 0.000000
vn 2.000000 0.000000 0.000000
v 15.000000 15.000000 15.000000 0.000000 1.000000 0.000000
vn 1.000000 0.000000 0.000000
v 15.000000 15.000000 -15.000000 0.000000 1.000000 0.000000
vn 0.000000 -2.000000 0.000000
v 15.000000 15.000000 -15.000000 0.000000 1.000000 0.000000
vn 0.000000 -1.000000 0.000000
v 15.000000 15.000000 15.000000 0.000000 1.000000 0.000000
vn 0.000000 -2.000000 0.000000
v -15.000000 15.000000 15.000000 0.000000 1.000000 0.000000
vn 0.000000 -1.000000 0.000000
v -15.000000 15.000000 -15.000000 0.000000 1.000000 0.000000
vn 0.000000 0.000000 -2.000000
v -15.000000 105.000000 -15.000000 0.000000 1.000000 0.000000
vn 0.000000 0.000000 -1.000000
v 15.000000 105.000000 -15.000000 0.000000 1.000000 0.000000
vn 0.000000 0.000000 -2.000000
v 15.000000 15.000000 -15.000000 0.000000 1.000000 0.000000
vn 0.000000 0.000000 -1.000000
v -15.000000 15.000000 -15.000000 0.000000 1.000000 0.000000
vn 0.000000 0.000000 2.000000
v 15.000000 105.000000 15.000000 0.000000 1.000000 0.000000
vn 0.000000 0.000000 1.000000
v -15.000000 105.000000 15.000000 0.000000 1.000000 0.000000
vn 0.000000 0.000000 2.000000
v -15.000000 15.000000 15.000000 0.000000 1.000000 0.000000
vn 0.000000 0.000000 1.000000
v 15.000000 15.000000 15.000000 0.000000 1.000000 0.000000
vn -2.000000 0.000000 0.000000
v -15.000000 -15.000000 15.000000 0.000000 0.000000 1.000000
vn -1.000000 0.000000 0.000000
v -15.000000 -15.000000 105.000000 0.000000 0.000000 1.000000
vn -2.000000 0.000000 0.000000
v -15.000000 15.000000 105.000000 0.000000 0.000000 1.000000
vn -1.000000 0.000000 0.000000
v -15.000000 15.000000 15.000000 0.000000 0.000000 1.000000
vn 0.000000 2.000000 0.000000
v -15.000000 15.000000 15.000000 0.000000 0.000000 1.000000
vn 0.000000 1.000000 0.000000
v -15.000000 15.000000 105.000000 0.000000 0.000000 1.000000
vn 0.000000 2.000000 0.000000
v 15.000000 15.000000 105.000000 0.000000 0.000000 1.000000
vn 0.000000 1.000000 0.000000
v 15.000000 15.000000 15.000000 0.000000 0.000000 1.000000
vn 2.000000 0.000000 0.000000
v 15.000000 15.000000 15.000000 0.000000 0.000000 1.000000
vn 1.000000 0.000000 0.000000
v 15.000000 15.000000 105.000000 0.000000 0.000000 1.000000
vn 2.000000 0.000000 0.000000
v 15.000000 -15.000000 105.000000 0.000000 0.000000 1.000000
vn 1.000000 0.000000 0.000000
v 15.000000 -15.000000 15.000000 0.000000 0.000000 1.000000
vn 0.000000 -2.000000 0.000000
v 15.000000 -15.000000 15.000000 0.000000 0.000000 1.000000
vn 0.000000 -1.000000 0.000000
v 15.000000 -15.000000 105.000000 0.000000 0.000000 1.000000
vn 0.000000 -2.000000 0.000000
v -15.000000 -15.000000 105.000000 0.000000 0.000000 1.000000
vn 0.000000 -1.000000 0.000000
v -15.000000 -15.000000 15.000000 0.000000 0.000000 1.000000
vn 0.000000 0.000000 -2.000000
v -15.000000 15.000000 15.000000 0.000000 0.000000 1.000000
vn 0.000000 0.000000 -1.000000
v 15.000000 15.000000 15.000000 0.000000 0.000000 1.000000
vn 0.000000 0.000000 -2.000000
v 15.000000 -15.000000 15.000000 0.000000 0.000000 1.000000
vn 0.000000 0.000000 -1.000000
v -15.000000 -15.000000 15.000000 0.000000 0.000000 1.000000
vn 0.000000 0.000000 2.000000
v 15.000000 15.000000 105.000000 0.000000 0.000000 1.000000
vn 0.000000 0.000000 1.000000
v -15.000000 15.000000 105.000000 0.000000 0.000000 1.000000
vn 0.000000 0.000000 2.000000
v -15.000000 -15.000000 105.000000 0.000000 0.000000 1.000000
vn 0.000000 0.000000 1.000000
v 15.000000 -15.000000 105.000000 0.000000 0.000000 1.000000
# 96 vertices, 0 vertices normals


usemtl material_0
vt 0.404883 0.411788
vt 0.493095 0.500000
vt 0.404883 0.588212
f 1/1/1 2/2/2 3/3/3
vt 0.588212 0.595117
vt 0.411788 0.595117
vt 0.500000 0.506905
f 1/4/1 3/5/3 4/6/4
vt 0.595117 0.588212
vt 0.506905 0.500000
vt 0.595117 0.411788
f 5/7/5 6/8/6 7/9/7
vt 0.411788 0.404883
vt 0.588212 0.404883
vt 0.500000 0.493095
f 5/10/5 7/11/7 8/12/8
vt 0.604883 0.411788
vt 0.693095 0.500000
vt 0.604883 0.588212
f 9/13/9 10/14/10 11/15/11
vt 0.788212 0.595117
vt 0.611788 0.595117
vt 0.700000 0.506905
f 9/16/9 11/17/11 12/18/12
vt 0.795117 0.588212
vt 0.706905 0.500000
vt 0.795117 0.411788
f 13/19/13 14/20/14 15/21/15
vt 0.611788 0.404883
vt 0.788212 0.404883
vt 0.700000 0.493095
f 13/22/13 15/23/15 16/24/16
vt 0.804883 0.411788
vt 0.893095 0.500000
vt 0.804883 0.588212
f 17/25/17 18/26/18 19/27/19
vt 0.988212 0.595117
vt 0.811788 0.595117
vt 0.900000 0.506905
f 17/28/17 19/29/19 20/30/20
vt 0.995117 0.588212
vt 0.906905 0.500000
vt 0.995117 0.411788
f 21/31/21 22/32/22 23/33/23
vt 0.811788 0.404883
vt 0.988212 0.404883
vt 0.900000 0.493095
f 21/34/21 23/35/23 24/36/24
vt 0.004883 0.211788
vt 0.093095 0.300000
vt 0.004883 0.388212
f 25/37/25 26/38/26 27/39/27
vt 0.188212 0.395117
vt 0.011788 0.395117
vt 0.100000 0.306905
f 25/40/25 27/41/27 28/42/28
vt 0.188212 0.995117
vt 0.004883 0.995117
vt 0.004883 0.811788
f 29/43/29 30/44/30 31/45/31
vt 0.195117 0.988212
vt 0.011788 0.804883
vt 0.195117 0.804883
f 29/46/29 31/47/31 32/48/32
vt 0.195117 0.388212
vt 0.106905 0.300000
vt 0.195117 0.211788
f 33/49/33 34/50/34 35/51/35
vt 0.011788 0.204883
vt 0.188212 0.204883
vt 0.100000 0.293095
f 33/52/33 35/53/35 36/54/36
vt 0.388212 0.995117
vt 0.204883 0.995117
vt 0.204883 0.811788
f 37/55/37 38/56/38 39/57/39
vt 0.395117 0.988212
vt 0.211788 0.804883
vt 0.395117 0.804883
f 37/58/37 39/59/39 40/60/40
vt 0.588212 0.995117
vt 0.404883 0.995117
vt 0.404883 0.811788
f 41/61/41 42/62/42 43/63/43
vt 0.595117 0.988212
vt 0.411788 0.804883
vt 0.595117 0.804883
f 41/64/41 43/65/43 44/66/44
vt 0.788212 0.995117
vt 0.604883 0.995117
vt 0.604883 0.811788
f 45/67/45 46/68/46 47/69/47
vt 0.795117 0.988212
vt 0.611788 0.804883
vt 0.795117 0.804883
f 45/70/45 47/71/47 48/72/48
vt 0.988212 0.995117
vt 0.804883 0.995117
vt 0.804883 0.811788
f 49/73/49 50/74/50 51/75/51
vt 0.995117 0.988212
vt 0.811788 0.804883
vt 0.995117 0.804883
f 49/76/49 51/77/51 52/78/52
vt 0.204883 0.211788
vt 0.293095 0.300000
vt 0.204883 0.388212
f 53/79/53 54/80/54 55/81/55
vt 0.388212 0.395117
vt 0.211788 0.395117
vt 0.300000 0.306905
f 53/82/53 55/83/55 56/84/56
vt 0.188212 0.795117
vt 0.004883 0.795117
vt 0.004883 0.611788
f 57/85/57 58/86/58 59/87/59
vt 0.195117 0.788212
vt 0.011788 0.604883
vt 0.195117 0.604883
f 57/88/57 59/89/59 60/90/60
vt 0.395117 0.388212
vt 0.306905 0.300000
vt 0.395117 0.211788
f 61/91/61 62/92/62 63/93/63
vt 0.211788 0.204883
vt 0.388212 0.204883
vt 0.300000 0.293095
f 61/94/61 63/95/63 64/96/64
vt 0.388212 0.795117
vt 0.204883 0.795117
vt 0.204883 0.611788
f 65/97/65 66/98/66 67/99/67
vt 0.395117 0.788212
vt 0.211788 0.604883
vt 0.395117 0.604883
f 65/100/65 67/101/67 68/102/68
vt 0.588212 0.795117
vt 0.404883 0.795117
vt 0.404883 0.611788
f 69/103/69 70/104/70 71/105/71
vt 0.595117 0.788212
vt 0.411788 0.604883
vt 0.595117 0.604883
f 69/106/69 71/107/71 72/108/72
vt 0.788212 0.795117
vt 0.604883 0.795117
vt 0.604883 0.611788
f 73/109/73 74/110/74 75/111/75
vt 0.795117 0.788212
vt 0.611788 0.604883
vt 0.795117 0.604883
f 73/112/73 75/113/75 76/114/76
vt 0.988212 0.795117
vt 0.804883 0.795117
vt 0.804883 0.611788
f 77/115/77 78/116/78 79/117/79
vt 0.995117 0.788212
vt 0.811788 0.604883
vt 0.995117 0.604883
f 77/118/77 79/119/79 80/120/80
vt 0.188212 0.595117
vt 0.004883 0.595117
vt 0.004883 0.411788
f 81/121/81 82/122/82 83/123/83
vt 0.195117 0.588212
vt 0.011788 0.404883
vt 0.195117 0.404883
f 81/124/81 83/125/83 84/126/84
vt 0.388212 0.595117
vt 0.204883 0.595117
vt 0.204883 0.411788
f 85/127/85 86/128/86 87/129/87
vt 0.395117 0.588212
vt 0.211788 0.404883
vt 0.395117 0.404883
f 85/130/85 87/131/87 88/132/88
vt 0.404883 0.211788
vt 0.493095 0.300000
vt 0.404883 0.388212
f 89/133/89 90/134/90 91/135/91
vt 0.588212 0.395117
vt 0.411788 0.395117
vt 0.500000 0.306905
f 89/136/89 91/137/91 92/138/92
vt 0.595117 0.388212
vt 0.506905 0.300000
vt 0.595117 0.211788
f 93/139/93 94/140/94 95/141/95
vt 0.411788 0.204883
vt 0.588212 0.204883
vt 0.500000 0.293095
f 93/142/93 95/143/95 96/144/96
# 48 faces, 144 coords texture

# End of File
